<svg width="33" height="34" viewBox="0 0 33 34" fill="none" xmlns="http://www.w3.org/2000/svg">
    <path d="M20.8331 7.83333C22.0617 8.07304 23.2813 8.61487 24.1664 9.5C25.0515 10.3851 25.5934 11.6047 25.8331 12.8333M21.6664 2C24.219 2.28357 26.5159 3.51845 28.3331 5.33333C30.1502 7.14822 31.3796 9.44781 31.6664 12M31.6655 24.4611V28.9774C31.6725 30.7038 30.1202 32.1455 28.3772 31.9882C13.3332 32 1.6665 20.225 1.67828 5.28198C1.5213 3.54825 2.9558 2.00177 4.68002 2.00015H9.20525C9.93729 1.99296 10.647 2.25167 11.202 2.72807C12.7801 4.08249 13.7951 8.67962 13.4045 10.5071C13.0996 11.9339 11.6613 12.9322 10.6835 13.9081C12.8308 17.677 15.9576 20.7976 19.734 22.9406C20.7118 21.9647 21.712 20.5293 23.1416 20.225C24.9756 19.8346 29.6023 20.8511 30.9513 22.4401C31.4297 23.0035 31.6838 23.7228 31.6655 24.4611Z"
          stroke="#363E45" stroke-width="2.5" stroke-linecap="round" stroke-linejoin="round"/>
</svg>
