<svg width="22" height="20" viewBox="0 0 22 20" fill="none" xmlns="http://www.w3.org/2000/svg">
    <path d="M21.9912 1.95021C21.9913 1.77357 21.9446 1.60007 21.8558 1.44735C21.7671 1.29464 21.6394 1.16817 21.4859 1.08084C21.3324 0.993502 21.1584 0.948416 20.9818 0.95017C20.8052 0.951925 20.6322 1.00046 20.4804 1.09083C19.8951 1.43921 19.265 1.70601 18.6074 1.88383C17.6684 1.07806 16.4708 0.637129 15.2334 0.641636C13.876 0.643198 12.5723 1.17223 11.5976 2.11702C10.623 3.06181 10.0536 4.3484 10.0098 5.70512C7.33378 5.27838 4.90843 3.88164 3.19625 1.78126C3.09308 1.65609 2.96133 1.55757 2.81211 1.494C2.66288 1.43043 2.50056 1.40368 2.33883 1.41601C2.17719 1.42932 2.02122 1.4818 1.88442 1.56892C1.74762 1.65603 1.63409 1.77516 1.55367 1.91601C1.1412 2.63582 0.9043 3.44276 0.862218 4.27131C0.820137 5.09986 0.974057 5.92666 1.31148 6.68456L1.30953 6.68651C1.15788 6.77991 1.03272 6.91066 0.946034 7.06625C0.859347 7.22185 0.814028 7.39708 0.814409 7.57519C0.812573 7.72211 0.821386 7.86898 0.840779 8.01464C0.942916 9.2729 1.50056 10.4507 2.40914 11.3271C2.3475 11.4446 2.30988 11.5731 2.29848 11.7052C2.28708 11.8373 2.30212 11.9704 2.34273 12.0967C2.73884 13.3308 3.58123 14.3727 4.70504 15.0185C3.56328 15.46 2.33046 15.614 1.11519 15.4668C0.890261 15.4386 0.662419 15.4876 0.469037 15.6059C0.275655 15.7242 0.128216 15.9047 0.0509041 16.1178C-0.0264075 16.3309 -0.0290006 16.5639 0.0435499 16.7787C0.1161 16.9935 0.259487 17.1772 0.450189 17.2998C2.54028 18.646 4.97387 19.3617 7.45996 19.3613C10.2792 19.393 13.0299 18.4921 15.2842 16.7988C17.5385 15.1054 19.1699 12.7145 19.9248 9.99801C20.2778 8.81464 20.4581 7.58648 20.46 6.35157C20.46 6.28614 20.46 6.21876 20.459 6.15138C20.9811 5.58831 21.3855 4.92668 21.6486 4.20527C21.9117 3.48387 22.0282 2.7172 21.9912 1.95021ZM18.6845 5.16212C18.5194 5.35746 18.4358 5.60891 18.4511 5.86427C18.4609 6.02927 18.4599 6.19527 18.4599 6.35157C18.4579 7.39511 18.3049 8.43287 18.0058 9.43263C17.3893 11.744 16.015 13.7817 14.1029 15.2192C12.1908 16.6568 9.85164 17.4111 7.45996 17.3613C6.60084 17.3616 5.74468 17.2606 4.90918 17.0606C5.97459 16.7172 6.97077 16.1879 7.85156 15.4971C8.01378 15.3693 8.13251 15.1945 8.19145 14.9967C8.25038 14.7988 8.24664 14.5875 8.18073 14.3918C8.11483 14.1961 7.98999 14.0257 7.82334 13.9038C7.65669 13.7819 7.4564 13.7145 7.24996 13.7109C6.41879 13.698 5.62509 13.363 5.03609 12.7764C5.18551 12.7481 5.33395 12.7129 5.48141 12.6709C5.69742 12.6094 5.88645 12.477 6.01807 12.295C6.14969 12.1131 6.21623 11.8921 6.20698 11.6677C6.19773 11.4433 6.11324 11.2285 5.96709 11.058C5.82095 10.8874 5.62167 10.7711 5.40133 10.7275C4.91887 10.6323 4.46487 10.427 4.07464 10.1277C3.68441 9.82845 3.36845 9.44321 3.15133 9.00196C3.33206 9.02662 3.51394 9.04194 3.69625 9.04786C3.91283 9.05113 4.12484 8.98543 4.30162 8.86026C4.47841 8.73509 4.6108 8.55694 4.67965 8.35157C4.74563 8.14433 4.74223 7.92123 4.66998 7.7161C4.59772 7.51096 4.46055 7.33499 4.27926 7.21485C3.83941 6.92182 3.4791 6.52427 3.23061 6.0578C2.98213 5.59134 2.85322 5.07052 2.85543 4.54201C2.85543 4.47561 2.85738 4.4092 2.86129 4.34377C5.10255 6.43402 8.00961 7.66621 11.0703 7.82326C11.2248 7.82934 11.3786 7.80024 11.5202 7.73816C11.6618 7.67607 11.7875 7.58262 11.8877 7.46486C11.9869 7.34596 12.0571 7.20566 12.0928 7.05501C12.1286 6.90437 12.1289 6.74748 12.0937 6.5967C12.0365 6.35806 12.0073 6.11357 12.0068 5.86818C12.0077 5.01271 12.3479 4.19254 12.9528 3.58764C13.5577 2.98274 14.3779 2.64251 15.2334 2.64161C15.6735 2.64043 16.1091 2.7305 16.5127 2.90615C16.9162 3.0818 17.279 3.3392 17.5781 3.66212C17.6934 3.7862 17.8386 3.87871 17.9998 3.93085C18.161 3.98299 18.3328 3.99303 18.499 3.96001C18.9097 3.88006 19.3146 3.7724 19.7109 3.63775C19.4406 4.19072 19.0952 4.70369 18.6845 5.16212Z"
          fill="#363E45" fill-opacity="0.64"/>
</svg>
